<mxfile host="app.diagrams.net" agent="Mozilla/5.0 (X11; Linux x86_64; rv:134.0) Gecko/20100101 Firefox/134.0" version="26.0.11">
  <diagram name="Page-1" id="eBXmieMb9bg2OvH-YMfZ">
    <mxGraphModel dx="1149" dy="737" grid="1" gridSize="10" guides="1" tooltips="1" connect="1" arrows="1" fold="1" page="1" pageScale="1" pageWidth="850" pageHeight="1100" math="0" shadow="0">
      <root>
        <mxCell id="0" />
        <mxCell id="1" parent="0" />
        <mxCell id="maIBDEj72td2juhxYosw-2" value="" style="edgeStyle=none;curved=1;rounded=0;orthogonalLoop=1;jettySize=auto;html=1;fontSize=12;startSize=8;endSize=8;endArrow=none;startFill=0;" edge="1" parent="1" source="YL0Kg8xD5CPBYhNrDO7n-1" target="maIBDEj72td2juhxYosw-1">
          <mxGeometry relative="1" as="geometry" />
        </mxCell>
        <mxCell id="maIBDEj72td2juhxYosw-14" value="" style="edgeStyle=none;curved=1;rounded=0;orthogonalLoop=1;jettySize=auto;html=1;fontSize=12;startSize=8;endSize=8;" edge="1" parent="1" source="YL0Kg8xD5CPBYhNrDO7n-1" target="maIBDEj72td2juhxYosw-13">
          <mxGeometry relative="1" as="geometry" />
        </mxCell>
        <mxCell id="YL0Kg8xD5CPBYhNrDO7n-1" value="student" style="whiteSpace=wrap;html=1;aspect=fixed;" parent="1" vertex="1">
          <mxGeometry x="330" y="270" width="80" height="80" as="geometry" />
        </mxCell>
        <mxCell id="maIBDEj72td2juhxYosw-4" value="" style="edgeStyle=none;curved=1;rounded=0;orthogonalLoop=1;jettySize=auto;html=1;fontSize=12;startSize=8;endSize=8;" edge="1" parent="1" source="maIBDEj72td2juhxYosw-1" target="maIBDEj72td2juhxYosw-3">
          <mxGeometry relative="1" as="geometry" />
        </mxCell>
        <mxCell id="maIBDEj72td2juhxYosw-1" value="belongs to" style="rhombus;whiteSpace=wrap;html=1;" vertex="1" parent="1">
          <mxGeometry x="530" y="270" width="80" height="80" as="geometry" />
        </mxCell>
        <mxCell id="maIBDEj72td2juhxYosw-3" value="department" style="whiteSpace=wrap;html=1;" vertex="1" parent="1">
          <mxGeometry x="710" y="280" width="120" height="60" as="geometry" />
        </mxCell>
        <mxCell id="maIBDEj72td2juhxYosw-5" value="" style="edgeStyle=none;curved=1;rounded=0;orthogonalLoop=1;jettySize=auto;html=1;fontSize=12;startSize=8;endSize=8;endArrow=none;startFill=0;" edge="1" parent="1" source="maIBDEj72td2juhxYosw-6" target="maIBDEj72td2juhxYosw-7">
          <mxGeometry relative="1" as="geometry" />
        </mxCell>
        <mxCell id="maIBDEj72td2juhxYosw-10" value="" style="edgeStyle=none;curved=1;rounded=0;orthogonalLoop=1;jettySize=auto;html=1;fontSize=12;startSize=8;endSize=8;" edge="1" parent="1" source="maIBDEj72td2juhxYosw-6" target="maIBDEj72td2juhxYosw-9">
          <mxGeometry relative="1" as="geometry" />
        </mxCell>
        <mxCell id="maIBDEj72td2juhxYosw-24" style="edgeStyle=none;curved=1;rounded=0;orthogonalLoop=1;jettySize=auto;html=1;fontSize=12;startSize=8;endSize=8;" edge="1" parent="1" source="maIBDEj72td2juhxYosw-6" target="maIBDEj72td2juhxYosw-26">
          <mxGeometry relative="1" as="geometry">
            <mxPoint x="500" y="400" as="targetPoint" />
          </mxGeometry>
        </mxCell>
        <mxCell id="maIBDEj72td2juhxYosw-6" value="instructor" style="whiteSpace=wrap;html=1;aspect=fixed;" vertex="1" parent="1">
          <mxGeometry x="530" y="420" width="80" height="80" as="geometry" />
        </mxCell>
        <mxCell id="maIBDEj72td2juhxYosw-8" value="" style="edgeStyle=none;curved=1;rounded=0;orthogonalLoop=1;jettySize=auto;html=1;fontSize=12;startSize=8;endSize=8;" edge="1" parent="1" source="maIBDEj72td2juhxYosw-7" target="maIBDEj72td2juhxYosw-3">
          <mxGeometry relative="1" as="geometry" />
        </mxCell>
        <mxCell id="maIBDEj72td2juhxYosw-7" value="belongs to" style="rhombus;whiteSpace=wrap;html=1;" vertex="1" parent="1">
          <mxGeometry x="730" y="420" width="80" height="80" as="geometry" />
        </mxCell>
        <mxCell id="maIBDEj72td2juhxYosw-12" value="" style="edgeStyle=none;curved=1;rounded=0;orthogonalLoop=1;jettySize=auto;html=1;fontSize=12;startSize=8;endSize=8;" edge="1" parent="1" source="maIBDEj72td2juhxYosw-9" target="maIBDEj72td2juhxYosw-11">
          <mxGeometry relative="1" as="geometry" />
        </mxCell>
        <mxCell id="maIBDEj72td2juhxYosw-9" value="teaches" style="rhombus;whiteSpace=wrap;html=1;" vertex="1" parent="1">
          <mxGeometry x="330" y="420" width="80" height="80" as="geometry" />
        </mxCell>
        <mxCell id="maIBDEj72td2juhxYosw-18" style="edgeStyle=none;curved=1;rounded=0;orthogonalLoop=1;jettySize=auto;html=1;fontSize=12;startSize=8;endSize=8;endArrow=none;startFill=0;" edge="1" parent="1" source="maIBDEj72td2juhxYosw-11">
          <mxGeometry relative="1" as="geometry">
            <mxPoint x="170" y="660" as="targetPoint" />
          </mxGeometry>
        </mxCell>
        <mxCell id="maIBDEj72td2juhxYosw-20" value="" style="edgeStyle=none;curved=1;rounded=0;orthogonalLoop=1;jettySize=auto;html=1;fontSize=12;startSize=8;endSize=8;" edge="1" parent="1" source="maIBDEj72td2juhxYosw-11" target="maIBDEj72td2juhxYosw-19">
          <mxGeometry relative="1" as="geometry" />
        </mxCell>
        <mxCell id="maIBDEj72td2juhxYosw-29" value="" style="edgeStyle=none;curved=1;rounded=0;orthogonalLoop=1;jettySize=auto;html=1;fontSize=12;startSize=8;endSize=8;" edge="1" parent="1" source="maIBDEj72td2juhxYosw-11" target="maIBDEj72td2juhxYosw-28">
          <mxGeometry relative="1" as="geometry" />
        </mxCell>
        <mxCell id="maIBDEj72td2juhxYosw-34" value="" style="edgeStyle=none;curved=1;rounded=0;orthogonalLoop=1;jettySize=auto;html=1;fontSize=12;startSize=8;endSize=8;" edge="1" parent="1" source="maIBDEj72td2juhxYosw-11" target="maIBDEj72td2juhxYosw-33">
          <mxGeometry relative="1" as="geometry" />
        </mxCell>
        <mxCell id="maIBDEj72td2juhxYosw-11" value="section" style="whiteSpace=wrap;html=1;" vertex="1" parent="1">
          <mxGeometry x="310" y="630" width="120" height="60" as="geometry" />
        </mxCell>
        <mxCell id="maIBDEj72td2juhxYosw-17" style="edgeStyle=none;curved=1;rounded=0;orthogonalLoop=1;jettySize=auto;html=1;fontSize=12;startSize=8;endSize=8;endArrow=none;startFill=0;" edge="1" parent="1" source="maIBDEj72td2juhxYosw-13">
          <mxGeometry relative="1" as="geometry">
            <mxPoint x="170" y="660" as="targetPoint" />
          </mxGeometry>
        </mxCell>
        <mxCell id="maIBDEj72td2juhxYosw-13" value="&lt;div&gt;takes&lt;/div&gt;" style="rhombus;whiteSpace=wrap;html=1;" vertex="1" parent="1">
          <mxGeometry x="130" y="270" width="80" height="80" as="geometry" />
        </mxCell>
        <mxCell id="maIBDEj72td2juhxYosw-22" value="" style="edgeStyle=none;curved=1;rounded=0;orthogonalLoop=1;jettySize=auto;html=1;fontSize=12;startSize=8;endSize=8;" edge="1" parent="1" source="maIBDEj72td2juhxYosw-19" target="maIBDEj72td2juhxYosw-21">
          <mxGeometry relative="1" as="geometry" />
        </mxCell>
        <mxCell id="maIBDEj72td2juhxYosw-19" value="has" style="rhombus;whiteSpace=wrap;html=1;" vertex="1" parent="1">
          <mxGeometry x="570" y="620" width="80" height="80" as="geometry" />
        </mxCell>
        <mxCell id="maIBDEj72td2juhxYosw-21" value="&lt;div&gt;classroom&lt;/div&gt;" style="whiteSpace=wrap;html=1;" vertex="1" parent="1">
          <mxGeometry x="710" y="630" width="120" height="60" as="geometry" />
        </mxCell>
        <mxCell id="maIBDEj72td2juhxYosw-27" value="" style="edgeStyle=none;curved=1;rounded=0;orthogonalLoop=1;jettySize=auto;html=1;fontSize=12;startSize=8;endSize=8;" edge="1" parent="1" source="maIBDEj72td2juhxYosw-26" target="YL0Kg8xD5CPBYhNrDO7n-1">
          <mxGeometry relative="1" as="geometry" />
        </mxCell>
        <mxCell id="maIBDEj72td2juhxYosw-26" value="advisor" style="rhombus;whiteSpace=wrap;html=1;" vertex="1" parent="1">
          <mxGeometry x="440" y="340" width="80" height="80" as="geometry" />
        </mxCell>
        <mxCell id="maIBDEj72td2juhxYosw-31" value="" style="edgeStyle=none;curved=1;rounded=0;orthogonalLoop=1;jettySize=auto;html=1;fontSize=12;startSize=8;endSize=8;" edge="1" parent="1" source="maIBDEj72td2juhxYosw-28" target="maIBDEj72td2juhxYosw-30">
          <mxGeometry relative="1" as="geometry" />
        </mxCell>
        <mxCell id="maIBDEj72td2juhxYosw-28" value="assign" style="rhombus;whiteSpace=wrap;html=1;" vertex="1" parent="1">
          <mxGeometry x="330" y="800" width="80" height="80" as="geometry" />
        </mxCell>
        <mxCell id="maIBDEj72td2juhxYosw-32" value="" style="edgeStyle=none;curved=1;rounded=0;orthogonalLoop=1;jettySize=auto;html=1;fontSize=12;startSize=8;endSize=8;entryX=0.375;entryY=0.875;entryDx=0;entryDy=0;entryPerimeter=0;" edge="1" parent="1" source="maIBDEj72td2juhxYosw-30" target="maIBDEj72td2juhxYosw-7">
          <mxGeometry relative="1" as="geometry" />
        </mxCell>
        <mxCell id="maIBDEj72td2juhxYosw-30" value="courses" style="whiteSpace=wrap;html=1;" vertex="1" parent="1">
          <mxGeometry x="510" y="810" width="120" height="60" as="geometry" />
        </mxCell>
        <mxCell id="maIBDEj72td2juhxYosw-36" value="" style="edgeStyle=none;curved=1;rounded=0;orthogonalLoop=1;jettySize=auto;html=1;fontSize=12;startSize=8;endSize=8;" edge="1" parent="1" source="maIBDEj72td2juhxYosw-33" target="maIBDEj72td2juhxYosw-35">
          <mxGeometry relative="1" as="geometry" />
        </mxCell>
        <mxCell id="maIBDEj72td2juhxYosw-38" value="" style="edgeStyle=none;curved=1;rounded=0;orthogonalLoop=1;jettySize=auto;html=1;fontSize=12;startSize=8;endSize=8;" edge="1" parent="1" source="maIBDEj72td2juhxYosw-33" target="maIBDEj72td2juhxYosw-37">
          <mxGeometry relative="1" as="geometry" />
        </mxCell>
        <mxCell id="maIBDEj72td2juhxYosw-33" value="has" style="rhombus;whiteSpace=wrap;html=1;" vertex="1" parent="1">
          <mxGeometry x="220" y="710" width="80" height="80" as="geometry" />
        </mxCell>
        <mxCell id="maIBDEj72td2juhxYosw-35" value="time slot" style="whiteSpace=wrap;html=1;" vertex="1" parent="1">
          <mxGeometry x="200" y="920" width="120" height="60" as="geometry" />
        </mxCell>
        <mxCell id="maIBDEj72td2juhxYosw-37" value="prereq" style="whiteSpace=wrap;html=1;" vertex="1" parent="1">
          <mxGeometry x="60" y="720" width="120" height="60" as="geometry" />
        </mxCell>
        <mxCell id="maIBDEj72td2juhxYosw-40" value="" style="edgeStyle=none;curved=1;rounded=0;orthogonalLoop=1;jettySize=auto;html=1;fontSize=12;startSize=8;endSize=8;endArrow=none;startFill=0;" edge="1" parent="1" source="maIBDEj72td2juhxYosw-39" target="maIBDEj72td2juhxYosw-3">
          <mxGeometry relative="1" as="geometry" />
        </mxCell>
        <mxCell id="maIBDEj72td2juhxYosw-39" value="&lt;u&gt;dept_name&lt;/u&gt;" style="ellipse;whiteSpace=wrap;html=1;align=center;" vertex="1" parent="1">
          <mxGeometry x="570" y="190" width="100" height="40" as="geometry" />
        </mxCell>
        <mxCell id="maIBDEj72td2juhxYosw-42" value="" style="edgeStyle=none;curved=1;rounded=0;orthogonalLoop=1;jettySize=auto;html=1;fontSize=12;startSize=8;endSize=8;endArrow=none;startFill=0;" edge="1" parent="1" source="maIBDEj72td2juhxYosw-41" target="maIBDEj72td2juhxYosw-3">
          <mxGeometry relative="1" as="geometry" />
        </mxCell>
        <mxCell id="maIBDEj72td2juhxYosw-41" value="building" style="ellipse;whiteSpace=wrap;html=1;align=center;" vertex="1" parent="1">
          <mxGeometry x="630" y="140" width="100" height="40" as="geometry" />
        </mxCell>
        <mxCell id="maIBDEj72td2juhxYosw-44" value="" style="edgeStyle=none;curved=1;rounded=0;orthogonalLoop=1;jettySize=auto;html=1;fontSize=12;startSize=8;endSize=8;endArrow=none;startFill=0;" edge="1" parent="1" source="maIBDEj72td2juhxYosw-43" target="maIBDEj72td2juhxYosw-3">
          <mxGeometry relative="1" as="geometry" />
        </mxCell>
        <mxCell id="maIBDEj72td2juhxYosw-43" value="budget" style="ellipse;whiteSpace=wrap;html=1;align=center;" vertex="1" parent="1">
          <mxGeometry x="740" y="160" width="100" height="40" as="geometry" />
        </mxCell>
        <mxCell id="maIBDEj72td2juhxYosw-48" value="" style="edgeStyle=none;curved=1;rounded=0;orthogonalLoop=1;jettySize=auto;html=1;fontSize=12;startSize=8;endSize=8;" edge="1" parent="1" source="maIBDEj72td2juhxYosw-47" target="YL0Kg8xD5CPBYhNrDO7n-1">
          <mxGeometry relative="1" as="geometry" />
        </mxCell>
        <mxCell id="maIBDEj72td2juhxYosw-47" value="ID" style="ellipse;whiteSpace=wrap;html=1;align=center;" vertex="1" parent="1">
          <mxGeometry x="240" y="180" width="100" height="40" as="geometry" />
        </mxCell>
        <mxCell id="maIBDEj72td2juhxYosw-54" value="" style="edgeStyle=none;curved=1;rounded=0;orthogonalLoop=1;jettySize=auto;html=1;fontSize=12;startSize=8;endSize=8;" edge="1" parent="1" source="maIBDEj72td2juhxYosw-49" target="YL0Kg8xD5CPBYhNrDO7n-1">
          <mxGeometry relative="1" as="geometry" />
        </mxCell>
        <mxCell id="maIBDEj72td2juhxYosw-49" value="name" style="ellipse;whiteSpace=wrap;html=1;align=center;" vertex="1" parent="1">
          <mxGeometry x="300" y="130" width="100" height="40" as="geometry" />
        </mxCell>
        <mxCell id="maIBDEj72td2juhxYosw-53" value="" style="edgeStyle=none;curved=1;rounded=0;orthogonalLoop=1;jettySize=auto;html=1;fontSize=12;startSize=8;endSize=8;" edge="1" parent="1" source="maIBDEj72td2juhxYosw-50" target="YL0Kg8xD5CPBYhNrDO7n-1">
          <mxGeometry relative="1" as="geometry" />
        </mxCell>
        <mxCell id="maIBDEj72td2juhxYosw-50" value="&lt;div&gt;dept_name&lt;/div&gt;" style="ellipse;whiteSpace=wrap;html=1;align=center;" vertex="1" parent="1">
          <mxGeometry x="350" y="200" width="100" height="40" as="geometry" />
        </mxCell>
        <mxCell id="maIBDEj72td2juhxYosw-52" value="" style="edgeStyle=none;curved=1;rounded=0;orthogonalLoop=1;jettySize=auto;html=1;fontSize=12;startSize=8;endSize=8;" edge="1" parent="1" source="maIBDEj72td2juhxYosw-51" target="YL0Kg8xD5CPBYhNrDO7n-1">
          <mxGeometry relative="1" as="geometry" />
        </mxCell>
        <mxCell id="maIBDEj72td2juhxYosw-51" value="&lt;div&gt;tot_credit&lt;/div&gt;" style="ellipse;whiteSpace=wrap;html=1;align=center;" vertex="1" parent="1">
          <mxGeometry x="410" y="170" width="100" height="40" as="geometry" />
        </mxCell>
      </root>
    </mxGraphModel>
  </diagram>
</mxfile>
